<svg version="1.1" id="Layer_1" xmlns="http://www.w3.org/2000/svg" xmlns:xlink="http://www.w3.org/1999/xlink" x="0px" y="0px"
	 width="100%" viewBox="0 0 743 274" enable-background="new 0 0 743 274" xml:space="preserve">
<path fill="#0B1122" opacity="1.000000" stroke="none" 
	d="
M481.000000,275.000000 
	C320.666718,275.000000 160.833405,275.000000 1.000086,275.000000 
	C1.000057,183.666733 1.000057,92.333450 1.000029,1.000135 
	C248.666550,1.000090 496.333099,1.000090 743.999756,1.000045 
	C743.999817,92.333191 743.999817,183.666382 743.999878,274.999786 
	C656.500000,275.000000 569.000000,275.000000 481.000000,275.000000 
M140.774490,174.872864 
	C140.990036,175.125519 141.251297,175.315231 141.729156,176.105591 
	C145.803986,180.201904 149.835831,184.343094 154.007584,188.338196 
	C154.534271,188.842560 156.140045,189.014023 156.661606,188.601318 
	C160.121109,185.863907 164.106735,183.410538 164.113846,178.177155 
	C164.128723,167.212357 164.221695,156.246597 164.080338,145.283844 
	C164.060364,143.733826 162.906067,142.198456 162.080750,140.027588 
	C160.469772,138.569199 158.858810,137.110809 157.051437,135.019882 
	C154.007828,132.130203 150.964218,129.240524 147.648193,125.718384 
	C143.486938,121.761230 139.325668,117.804077 135.095108,113.866768 
	C135.095108,113.866768 135.091263,113.938759 134.891891,113.314827 
	C134.335251,113.070679 133.778625,112.826523 133.215668,112.540794 
	C133.215668,112.540794 133.228882,112.500450 133.264404,111.823662 
	C124.159920,102.748917 115.055443,93.674171 106.080948,84.728981 
	C96.526726,94.119133 87.328354,103.159546 78.736664,111.603699 
	C87.584084,120.883560 96.259399,129.982880 104.972519,139.033997 
	C104.972519,139.033997 104.913628,139.022675 105.052643,139.558838 
	C105.364006,139.728622 105.675377,139.898392 106.121017,140.562729 
	C106.413406,140.709061 106.705803,140.855392 107.194145,141.599243 
	C108.129639,142.407623 109.065132,143.216003 110.122940,144.498871 
	C110.537636,144.708786 110.952332,144.918701 111.670288,145.817551 
	C112.081573,146.088013 112.492851,146.358459 112.863426,147.275436 
	C115.554237,149.860367 118.245041,152.445312 121.137451,155.674805 
	C124.589302,158.890747 128.041153,162.106705 131.749039,165.953064 
	C134.335495,168.407684 136.921951,170.862289 139.746750,173.782639 
	C140.013519,174.001572 140.280289,174.220490 140.774490,174.872864 
M22.161558,141.651749 
	C22.310799,141.728485 22.460041,141.805206 22.744598,142.414581 
	C23.465963,142.951172 24.187326,143.487747 25.205385,144.627609 
	C31.715729,150.855667 38.226074,157.083740 44.724236,163.186356 
	C44.724236,163.186356 44.625031,163.264084 44.727039,163.813187 
	C45.155304,164.135269 45.583569,164.457336 46.126484,165.093750 
	C46.126484,165.093750 46.450417,165.177490 46.672474,165.765076 
	C47.019337,165.972321 47.366199,166.179581 47.698273,166.440369 
	C47.698273,166.440369 47.688282,166.495026 47.934898,167.099625 
	C50.796921,169.722153 53.658947,172.344696 56.594559,175.461594 
	C57.072929,175.866806 57.551300,176.272018 58.207302,177.024765 
	C58.207302,177.024765 58.569901,177.169220 58.824097,177.815659 
	C62.208672,181.226578 65.681152,184.555984 68.946609,188.077362 
	C71.087318,190.385849 72.623756,189.997574 74.632935,187.858215 
	C77.350960,184.964020 80.463890,182.445282 83.282059,179.639587 
	C88.878662,174.067749 94.389580,168.409851 100.771385,161.940598 
	C99.029465,160.740067 97.814453,159.902664 96.428329,158.469788 
	C94.961555,157.303116 93.494781,156.136444 91.745178,154.731415 
	C91.745178,154.731415 91.378838,154.782486 91.190651,154.233170 
	C90.789734,153.817932 90.388817,153.402679 89.968040,152.307404 
	C86.690292,149.141769 83.412544,145.976151 80.087265,142.927185 
	C80.087265,142.927185 80.190414,142.854858 79.971313,142.226227 
	C77.643234,140.195938 75.315155,138.165649 72.683182,135.695618 
	C72.410744,135.468094 72.138313,135.240555 71.754494,134.359024 
	C66.207199,128.840988 60.659897,123.322945 54.969715,117.365822 
	C54.789169,117.089378 54.535309,116.928940 53.996395,116.241867 
	C43.685661,105.968094 33.374928,95.694313 23.061050,85.417404 
	C16.554550,90.263168 11.964571,95.203735 13.057079,104.138458 
	C14.078360,112.490662 13.091808,121.071037 13.553064,129.520187 
	C13.682281,131.887192 15.804595,134.145386 17.253414,136.943390 
	C17.411795,137.032959 17.570177,137.122528 17.947220,137.775543 
	C18.997589,138.621521 20.047960,139.467499 21.385664,140.823868 
	C21.547213,140.933517 21.708759,141.043152 21.679817,141.228180 
	C21.679817,141.228180 21.922745,141.208572 22.161558,141.651749 
M137.010971,88.716171 
	C142.076813,94.766304 142.074554,94.764015 147.482086,89.409424 
	C150.780670,86.143135 153.759354,82.438667 157.460495,79.718544 
	C164.652267,74.433014 164.783386,67.444260 163.566345,58.926796 
	C163.566345,48.651638 163.566345,38.376484 163.566345,27.712698 
	C148.494019,42.724194 134.230804,56.929821 119.514519,71.586708 
	C123.695396,75.625732 127.974045,79.759216 132.497437,84.437187 
	C133.407593,85.122070 134.317764,85.806953 135.551971,86.877098 
	C135.714706,86.918091 135.877426,86.959076 136.163208,87.459602 
	C136.361420,87.716644 136.608459,87.911903 137.010971,88.716171 
M368.640320,108.969986 
	C363.561646,108.969986 358.483002,108.969986 353.397247,108.969986 
	C353.397247,132.769180 353.397247,155.833908 353.397247,179.008453 
	C358.821228,179.008453 363.934174,179.008453 369.656433,179.008453 
	C369.656433,176.987167 369.649841,175.199631 369.657471,173.412140 
	C369.746124,152.609558 369.836914,131.806976 370.559174,110.906830 
	C370.856506,110.597389 371.153809,110.287956 371.451141,109.978508 
	C370.800781,109.697815 370.150391,109.417114 368.640320,108.969986 
M12.600870,224.431641 
	C12.785583,226.969223 12.970297,229.506821 13.429727,232.902496 
	C13.334949,235.591156 13.240170,238.279831 12.804536,241.170120 
	C12.730813,241.277527 12.572954,241.450958 12.597017,241.481613 
	C12.753199,241.680649 12.948957,241.848633 13.399020,242.775116 
	C13.399020,244.438507 13.399020,246.101898 13.399020,247.764343 
	C28.577593,232.667053 43.245255,218.077942 57.097546,204.299820 
	C50.063030,196.880981 42.873783,189.298935 35.032249,181.028976 
	C29.534695,186.761520 24.306767,192.553802 18.689291,197.939774 
	C15.435713,201.059250 12.957542,204.231918 12.872749,209.161240 
	C12.993443,209.457581 13.114138,209.753937 13.544360,210.787659 
	C13.446866,211.833282 13.349372,212.878891 12.618156,214.412430 
	C12.829891,216.632599 13.041625,218.852783 13.555114,221.756409 
	C13.448385,222.480621 13.341658,223.204819 12.600870,224.431641 
M385.872314,134.226791 
	C386.090607,135.193054 386.308899,136.159332 386.774445,137.889069 
	C386.693634,139.213135 386.612823,140.537201 385.791718,142.344620 
	C386.038635,146.270935 386.285583,150.197266 386.772095,154.916733 
	C386.683350,156.560425 386.594604,158.204132 385.774261,160.345673 
	C386.008606,164.276428 386.242920,168.207199 386.735870,172.866440 
	C386.644379,173.880676 386.552887,174.894928 386.029175,176.112213 
	C385.929291,176.232437 385.731415,176.445450 385.744232,176.459015 
	C385.951965,176.678482 386.186462,176.872635 386.703827,177.738037 
	C387.257721,178.219452 387.802551,179.106186 388.366882,179.118759 
	C393.300446,179.228638 398.237488,179.182281 403.316650,179.182281 
	C403.316650,146.591476 403.316650,114.447823 403.316650,81.835915 
	C398.421814,81.835915 393.790894,81.656090 389.196411,81.984795 
	C388.256378,82.052048 387.452759,84.026016 385.875244,85.399666 
	C386.101440,86.645050 386.327667,87.890434 386.801880,89.837944 
	C386.723328,90.816933 386.644775,91.795914 385.824982,93.289886 
	C385.558319,94.047043 385.063232,94.803009 385.059296,95.561516 
	C385.001801,106.633057 384.965790,117.705360 385.069336,128.776123 
	C385.079865,129.903381 386.022949,131.021927 386.772278,132.701889 
	C386.691711,133.089584 386.611115,133.477295 385.872314,134.226791 
M725.747925,179.687134 
	C726.402100,179.373169 727.056335,179.059204 727.710510,178.745255 
	C727.093933,178.159805 726.477417,177.574356 725.578979,176.089447 
	C725.578979,145.043549 725.578979,113.997658 725.578979,82.880020 
	C719.512451,82.880020 714.262085,82.880020 708.633057,82.880020 
	C708.633057,84.795792 708.632751,86.429665 708.633118,88.063545 
	C708.638367,109.545532 708.669983,131.027573 708.630859,152.509476 
	C708.620850,157.986298 708.386780,163.462708 707.745056,169.239716 
	C707.905518,169.843201 708.065979,170.446671 708.511169,171.748749 
	C708.407959,172.482559 708.304749,173.216370 707.617310,174.371613 
	C707.841309,175.606659 708.065247,176.841690 708.788147,178.577271 
	C714.180115,178.856705 719.572144,179.136154 725.747925,179.687134 
M668.738708,156.373199 
	C671.520935,155.726578 672.888977,156.850159 673.712036,159.605072 
	C675.376648,165.176514 677.283508,170.685837 679.370300,176.113190 
	C679.851440,177.364578 681.409973,178.988846 682.559021,179.060699 
	C687.676392,179.380692 692.825134,179.199570 698.771179,179.199570 
	C686.695129,146.545868 674.837952,114.483788 662.985291,82.433899 
	C655.583313,82.433899 648.608154,82.433899 641.289124,82.433899 
	C629.858215,114.532341 618.443176,146.586121 606.830566,179.194550 
	C612.306335,179.194550 617.126831,179.032486 621.929260,179.256897 
	C624.695984,179.386185 625.528137,178.195709 626.275879,175.745148 
	C628.114136,169.720322 630.381714,163.826477 633.145630,157.662949 
	C633.463562,157.328140 633.781555,156.993347 634.821106,156.348831 
	C637.552246,156.408020 640.283447,156.467209 643.200134,157.056946 
	C644.128967,156.880081 645.057739,156.703217 646.881042,156.274170 
	C650.592590,156.381149 654.304077,156.488129 658.324097,157.219681 
	C660.274353,157.011108 662.224670,156.802536 664.730103,156.322372 
	C665.120911,156.416122 665.511658,156.509872 666.202942,157.158325 
	C666.830017,156.989090 667.457031,156.819855 668.738708,156.373199 
M539.220764,113.311165 
	C542.247070,117.897713 545.143921,122.577484 548.352051,127.033127 
	C550.063904,129.410660 550.104736,131.310898 548.461853,133.703217 
	C544.694214,139.189453 541.133545,144.817612 537.477356,150.380630 
	C531.300354,159.779160 525.114441,169.171875 518.478394,179.256821 
	C522.161560,179.256821 525.014221,178.855972 527.712952,179.330536 
	C536.482056,180.872528 541.634277,177.265717 545.658813,169.435379 
	C550.470886,160.072769 556.651550,151.413589 562.602417,141.867523 
	C564.096497,144.263412 565.142822,145.933807 566.181885,147.608704 
	C572.148193,157.225586 578.061951,166.875900 584.141174,176.420807 
	C584.913452,177.633286 586.513672,179.027618 587.789978,179.088547 
	C593.711792,179.371246 599.654541,179.213593 606.247559,179.213593 
	C605.519653,177.882095 605.188538,177.177277 604.771301,176.527847 
	C595.682861,162.383179 586.654663,148.198914 577.425415,134.146652 
	C575.739075,131.579041 575.323059,129.657394 577.205627,127.038483 
	C580.115417,122.990608 582.682495,118.695892 585.383240,114.498360 
	C592.028748,104.170059 598.667542,93.837471 605.851929,82.662056 
	C600.143616,82.662056 595.203796,82.881210 590.295105,82.584457 
	C587.062073,82.389000 585.223511,83.418106 583.533081,86.234695 
	C576.979004,97.155083 570.133118,107.900322 563.117554,119.157372 
	C562.273560,117.963509 561.682617,117.212654 561.181580,116.405998 
	C554.774170,106.090347 548.410767,95.747093 541.937500,85.473007 
	C541.229248,84.348846 539.938782,82.860321 538.866760,82.816986 
	C532.622620,82.564552 526.363098,82.693359 519.229309,82.693359 
	C526.129883,93.242867 532.490540,102.966850 539.220764,113.311165 
M108.579750,181.097092 
	C84.456017,205.352020 60.332275,229.606949 35.914093,254.157928 
	C36.881428,254.265686 37.498199,254.392120 38.115498,254.394775 
	C54.600460,254.465744 71.086105,254.604187 87.569595,254.473892 
	C89.444626,254.459091 91.741379,253.366211 93.109535,252.025299 
	C107.729561,237.696320 122.173813,223.188171 136.751633,208.815735 
	C138.467331,207.124237 140.693817,205.950836 142.683517,204.537231 
	C141.840378,204.541351 140.997238,204.545471 140.154099,204.549591 
	C131.332016,195.140884 122.509941,185.732162 113.324425,175.935837 
	C111.770462,177.663544 110.436890,179.146210 108.579750,181.097092 
M69.030182,93.580978 
	C93.548645,69.036331 118.067108,44.491676 143.070572,19.461510 
	C141.725739,19.161484 141.144775,18.919331 140.563477,18.918566 
	C124.076775,18.896847 107.589417,18.836693 91.104340,19.000906 
	C89.557053,19.016319 87.717369,20.156214 86.532867,21.308146 
	C76.755173,30.817060 67.206276,40.562565 57.372585,50.012146 
	C50.205963,56.898834 42.712715,63.445621 35.435020,70.080177 
	C45.857548,80.429359 54.793438,89.302361 64.560837,99.001015 
	C65.822746,97.421967 67.162193,95.745888 69.030182,93.580978 
M328.552063,157.928436 
	C324.040283,152.245010 319.528503,146.561569 314.943756,140.786194 
	C324.499878,130.210968 333.689270,120.041626 343.876099,108.768448 
	C336.619171,108.768448 330.863281,108.642097 325.121552,108.870453 
	C323.910919,108.918602 322.504761,110.047279 321.610168,111.053009 
	C316.527222,116.767357 311.635193,122.651466 306.554718,128.368088 
	C302.094025,133.387360 297.470886,138.262314 292.919495,143.201004 
	C292.466766,142.997284 292.014069,142.793564 291.561340,142.589844 
	C291.561340,122.444145 291.561340,102.298447 291.561340,82.216568 
	C285.628265,82.216568 280.407532,82.216568 275.209991,82.216568 
	C275.209991,114.697182 275.209991,146.754333 275.209991,178.916138 
	C280.733154,178.916138 285.962402,178.916138 291.581360,178.916138 
	C291.581360,170.946533 291.587433,163.312210 291.579712,155.677887 
	C291.571869,147.932053 291.565887,147.932053 299.411407,144.986588 
	C307.213440,155.298080 315.002289,165.668686 322.909607,175.948151 
	C323.924164,177.267090 325.503723,178.945251 326.908630,179.031097 
	C332.639069,179.381165 338.403412,179.176941 345.088287,179.176941 
	C339.332520,171.768860 334.168823,165.122803 328.552063,157.928436 
M220.326157,148.163300 
	C226.311096,149.593918 232.312363,150.960358 238.275238,152.477646 
	C242.265045,153.492859 245.419174,155.589951 245.510574,160.188446 
	C245.582703,163.817535 241.712540,167.135681 236.942947,167.929199 
	C225.397583,169.850006 220.885529,167.593689 215.395920,157.138733 
	C210.289093,157.138733 205.172623,157.138733 199.809982,157.138733 
	C199.731491,164.220215 202.808853,169.482269 207.875046,173.684982 
	C219.563751,183.381531 244.006134,182.847580 255.551178,172.963074 
	C263.752838,165.941071 266.040405,148.182648 251.429016,141.833145 
	C248.847702,140.711426 246.159363,139.767563 243.439590,139.046555 
	C236.853149,137.300507 230.195618,135.821747 223.613892,134.059189 
	C220.280304,133.166473 217.384109,130.793701 218.305145,127.361740 
	C218.999557,124.774284 221.529953,121.752937 223.992142,120.733192 
	C232.817001,117.078262 240.371124,120.376114 244.492371,128.901398 
	C249.595352,128.901398 254.713593,128.901398 260.173645,128.901398 
	C260.078766,122.569641 257.577850,117.744736 252.972244,114.006432 
	C241.888641,105.010017 219.069077,105.291031 208.035477,114.483910 
	C198.305313,122.590805 199.706863,138.422058 210.799942,144.447144 
	C213.546188,145.938736 216.615799,146.834991 220.326157,148.163300 
M458.670380,115.196526 
	C454.766663,118.793503 453.012329,123.346535 452.894043,128.554337 
	C452.668640,138.479019 458.210785,144.850220 469.684448,147.790054 
	C476.774017,149.606583 483.995667,150.965057 490.986359,153.093063 
	C497.112488,154.957886 498.278107,161.617447 493.536255,165.523132 
	C486.338623,171.451645 471.763367,168.111649 467.764679,159.724167 
	C467.235992,158.615189 465.917664,157.193283 464.890411,157.130127 
	C460.310944,156.848526 455.704376,157.007828 450.843689,157.007828 
	C451.440369,166.022369 455.451324,172.342972 462.743774,176.053787 
	C474.827911,182.202896 487.492279,182.614243 499.906036,177.251007 
	C508.352722,173.601685 513.262451,166.898651 512.960876,157.234268 
	C512.667053,147.817963 506.760681,143.007828 498.603302,140.166016 
	C497.035400,139.619812 495.427094,139.172531 493.813538,138.777267 
	C487.351318,137.194199 480.801147,135.912186 474.435822,134.009430 
	C469.132202,132.424042 467.715820,126.751999 471.277466,122.977158 
	C476.695618,117.234718 490.720612,119.472115 494.274017,126.544533 
	C494.825378,127.641914 496.131256,129.038239 497.160645,129.100586 
	C501.742157,129.378159 506.349976,129.221054 511.118378,129.221054 
	C510.883850,122.497276 508.440399,117.637024 503.664307,113.960571 
	C492.173920,105.115715 471.452728,105.477058 458.670380,115.196526 
M437.785065,125.499733 
	C437.785065,111.077789 437.785065,96.655838 437.785065,82.186722 
	C431.939667,82.186722 426.713348,82.186722 421.394989,82.186722 
	C421.394989,114.609352 421.394989,146.672760 421.394989,178.996948 
	C426.896759,178.996948 432.135040,178.996948 437.781158,178.996948 
	C437.781158,161.366852 437.781158,143.933319 437.785065,125.499733 
M361.409180,78.794312 
	C354.468842,79.256035 350.523193,82.515121 350.375488,87.908051 
	C350.232910,93.113350 354.650513,97.608070 360.206329,97.910553 
	C365.531342,98.200462 370.381775,94.590317 371.192352,89.733749 
	C372.119354,84.179543 368.893036,80.231209 361.409180,78.794312 
z"/>
<path fill="#F8F9F9" opacity="1.000000" stroke="none" 
	d="
M643.014587,156.526413 
	C640.283447,156.467209 637.552246,156.408020 634.067383,156.476089 
	C633.034668,157.028900 632.755676,157.454437 632.476685,157.879959 
	C630.381714,163.826477 628.114136,169.720322 626.275879,175.745148 
	C625.528137,178.195709 624.695984,179.386185 621.929260,179.256897 
	C617.126831,179.032486 612.306335,179.194550 606.830566,179.194550 
	C618.443176,146.586121 629.858215,114.532341 641.289124,82.433899 
	C648.608154,82.433899 655.583313,82.433899 662.985291,82.433899 
	C674.837952,114.483788 686.695129,146.545868 698.771179,179.199570 
	C692.825134,179.199570 687.676392,179.380692 682.559021,179.060699 
	C681.409973,178.988846 679.851440,177.364578 679.370300,176.113190 
	C677.283508,170.685837 675.376648,165.176514 673.712036,159.605072 
	C672.888977,156.850159 671.520935,155.726578 668.060547,156.362946 
	C666.889099,156.436340 666.395813,156.519974 665.902466,156.603607 
	C665.511658,156.509872 665.120911,156.416122 664.087952,156.331696 
	C661.635742,156.425720 659.825684,156.510406 658.015625,156.595123 
	C654.304077,156.488129 650.592590,156.381149 646.070190,156.291199 
	C644.511108,156.380966 643.762817,156.453690 643.014587,156.526413 
M653.467041,102.147903 
	C652.959961,101.137779 652.452881,100.127655 651.657288,98.542793 
	C646.791626,113.421074 642.213074,127.421333 637.514709,141.787994 
	C647.618469,141.787994 657.129761,141.787994 667.080811,141.787994 
	C662.558899,128.546509 658.170227,115.695198 653.467041,102.147903 
z"/>
<path fill="#F8F9F9" opacity="1.000000" stroke="none" 
	d="
M539.036011,113.000999 
	C532.490540,102.966850 526.129883,93.242867 519.229309,82.693359 
	C526.363098,82.693359 532.622620,82.564552 538.866760,82.816986 
	C539.938782,82.860321 541.229248,84.348846 541.937500,85.473007 
	C548.410767,95.747093 554.774170,106.090347 561.181580,116.405998 
	C561.682617,117.212654 562.273560,117.963509 563.117554,119.157372 
	C570.133118,107.900322 576.979004,97.155083 583.533081,86.234695 
	C585.223511,83.418106 587.062073,82.389000 590.295105,82.584457 
	C595.203796,82.881210 600.143616,82.662056 605.851929,82.662056 
	C598.667542,93.837471 592.028748,104.170059 585.383240,114.498360 
	C582.682495,118.695892 580.115417,122.990608 577.205627,127.038483 
	C575.323059,129.657394 575.739075,131.579041 577.425415,134.146652 
	C586.654663,148.198914 595.682861,162.383179 604.771301,176.527847 
	C605.188538,177.177277 605.519653,177.882095 606.247559,179.213593 
	C599.654541,179.213593 593.711792,179.371246 587.789978,179.088547 
	C586.513672,179.027618 584.913452,177.633286 584.141174,176.420807 
	C578.061951,166.875900 572.148193,157.225586 566.181885,147.608704 
	C565.142822,145.933807 564.096497,144.263412 562.602417,141.867523 
	C556.651550,151.413589 550.470886,160.072769 545.658813,169.435379 
	C541.634277,177.265717 536.482056,180.872528 527.712952,179.330536 
	C525.014221,178.855972 522.161560,179.256821 518.478394,179.256821 
	C525.114441,169.171875 531.300354,159.779160 537.477356,150.380630 
	C541.133545,144.817612 544.694214,139.189453 548.461853,133.703217 
	C550.104736,131.310898 550.063904,129.410660 548.352051,127.033127 
	C545.143921,122.577484 542.247070,117.897713 539.036011,113.000999 
z"/>
<path fill="#F8F9F9" opacity="1.000000" stroke="none" 
	d="
M108.841537,180.862976 
	C110.436890,179.146210 111.770462,177.663544 113.324425,175.935837 
	C122.509941,185.732162 131.332016,195.140884 140.154099,204.549591 
	C140.997238,204.545471 141.840378,204.541351 142.683517,204.537231 
	C140.693817,205.950836 138.467331,207.124237 136.751633,208.815735 
	C122.173813,223.188171 107.729561,237.696320 93.109535,252.025299 
	C91.741379,253.366211 89.444626,254.459091 87.569595,254.473892 
	C71.086105,254.604187 54.600460,254.465744 38.115498,254.394775 
	C37.498199,254.392120 36.881428,254.265686 35.914093,254.157928 
	C60.332275,229.606949 84.456017,205.352020 108.841537,180.862976 
z"/>
<path fill="#FAFBFB" opacity="1.000000" stroke="none" 
	d="
M68.765915,93.825394 
	C67.162193,95.745888 65.822746,97.421967 64.560837,99.001015 
	C54.793438,89.302361 45.857548,80.429359 35.435020,70.080177 
	C42.712715,63.445621 50.205963,56.898834 57.372585,50.012146 
	C67.206276,40.562565 76.755173,30.817060 86.532867,21.308146 
	C87.717369,20.156214 89.557053,19.016319 91.104340,19.000906 
	C107.589417,18.836693 124.076775,18.896847 140.563477,18.918566 
	C141.144775,18.919331 141.725739,19.161484 143.070572,19.461510 
	C118.067108,44.491676 93.548645,69.036331 68.765915,93.825394 
z"/>
<path fill="#F5F6F6" opacity="1.000000" stroke="none" 
	d="
M328.778564,158.202591 
	C334.168823,165.122803 339.332520,171.768860 345.088287,179.176941 
	C338.403412,179.176941 332.639069,179.381165 326.908630,179.031097 
	C325.503723,178.945251 323.924164,177.267090 322.909607,175.948151 
	C315.002289,165.668686 307.213440,155.298080 299.411407,144.986588 
	C291.565887,147.932053 291.571869,147.932053 291.579712,155.677887 
	C291.587433,163.312210 291.581360,170.946533 291.581360,178.916138 
	C285.962402,178.916138 280.733154,178.916138 275.209991,178.916138 
	C275.209991,146.754333 275.209991,114.697182 275.209991,82.216568 
	C280.407532,82.216568 285.628265,82.216568 291.561340,82.216568 
	C291.561340,102.298447 291.561340,122.444145 291.561340,142.589844 
	C292.014069,142.793564 292.466766,142.997284 292.919495,143.201004 
	C297.470886,138.262314 302.094025,133.387360 306.554718,128.368088 
	C311.635193,122.651466 316.527222,116.767357 321.610168,111.053009 
	C322.504761,110.047279 323.910919,108.918602 325.121552,108.870453 
	C330.863281,108.642097 336.619171,108.768448 343.876099,108.768448 
	C333.689270,120.041626 324.499878,130.210968 314.943756,140.786194 
	C319.528503,146.561569 324.040283,152.245010 328.778564,158.202591 
z"/>
<path fill="#F6F7F7" opacity="1.000000" stroke="none" 
	d="
M219.931458,148.084106 
	C216.615799,146.834991 213.546188,145.938736 210.799942,144.447144 
	C199.706863,138.422058 198.305313,122.590805 208.035477,114.483910 
	C219.069077,105.291031 241.888641,105.010017 252.972244,114.006432 
	C257.577850,117.744736 260.078766,122.569641 260.173645,128.901398 
	C254.713593,128.901398 249.595352,128.901398 244.492371,128.901398 
	C240.371124,120.376114 232.817001,117.078262 223.992142,120.733192 
	C221.529953,121.752937 218.999557,124.774284 218.305145,127.361740 
	C217.384109,130.793701 220.280304,133.166473 223.613892,134.059189 
	C230.195618,135.821747 236.853149,137.300507 243.439590,139.046555 
	C246.159363,139.767563 248.847702,140.711426 251.429016,141.833145 
	C266.040405,148.182648 263.752838,165.941071 255.551178,172.963074 
	C244.006134,182.847580 219.563751,183.381531 207.875046,173.684982 
	C202.808853,169.482269 199.731491,164.220215 199.809982,157.138733 
	C205.172623,157.138733 210.289093,157.138733 215.395920,157.138733 
	C220.885529,167.593689 225.397583,169.850006 236.942947,167.929199 
	C241.712540,167.135681 245.582703,163.817535 245.510574,160.188446 
	C245.419174,155.589951 242.265045,153.492859 238.275238,152.477646 
	C232.312363,150.960358 226.311096,149.593918 219.931458,148.084106 
z"/>
<path fill="#F6F7F7" opacity="1.000000" stroke="none" 
	d="
M458.940582,114.957222 
	C471.452728,105.477058 492.173920,105.115715 503.664307,113.960571 
	C508.440399,117.637024 510.883850,122.497276 511.118378,129.221054 
	C506.349976,129.221054 501.742157,129.378159 497.160645,129.100586 
	C496.131256,129.038239 494.825378,127.641914 494.274017,126.544533 
	C490.720612,119.472115 476.695618,117.234718 471.277466,122.977158 
	C467.715820,126.751999 469.132202,132.424042 474.435822,134.009430 
	C480.801147,135.912186 487.351318,137.194199 493.813538,138.777267 
	C495.427094,139.172531 497.035400,139.619812 498.603302,140.166016 
	C506.760681,143.007828 512.667053,147.817963 512.960876,157.234268 
	C513.262451,166.898651 508.352722,173.601685 499.906036,177.251007 
	C487.492279,182.614243 474.827911,182.202896 462.743774,176.053787 
	C455.451324,172.342972 451.440369,166.022369 450.843689,157.007828 
	C455.704376,157.007828 460.310944,156.848526 464.890411,157.130127 
	C465.917664,157.193283 467.235992,158.615189 467.764679,159.724167 
	C471.763367,168.111649 486.338623,171.451645 493.536255,165.523132 
	C498.278107,161.617447 497.112488,154.957886 490.986359,153.093063 
	C483.995667,150.965057 476.774017,149.606583 469.684448,147.790054 
	C458.210785,144.850220 452.668640,138.479019 452.894043,128.554337 
	C453.012329,123.346535 454.766663,118.793503 458.940582,114.957222 
z"/>
<path fill="#F6F7F7" opacity="1.000000" stroke="none" 
	d="
M708.255676,168.939316 
	C708.386780,163.462708 708.620850,157.986298 708.630859,152.509476 
	C708.669983,131.027573 708.638367,109.545532 708.633118,88.063545 
	C708.632751,86.429665 708.633057,84.795792 708.633057,82.880020 
	C714.262085,82.880020 719.512451,82.880020 725.578979,82.880020 
	C725.578979,113.997658 725.578979,145.043549 725.598877,176.845169 
	C725.400513,178.205795 725.182312,178.810699 724.964111,179.415588 
	C719.572144,179.136154 714.180115,178.856705 708.651611,177.922668 
	C708.410583,176.162109 708.306030,175.056137 708.201538,173.950180 
	C708.304749,173.216370 708.407959,172.482559 708.502441,171.057526 
	C708.414368,169.890656 708.335022,169.414993 708.255676,168.939316 
z"/>
<path fill="#F5F5F6" opacity="1.000000" stroke="none" 
	d="
M386.461395,175.909164 
	C386.552887,174.894928 386.644379,173.880676 386.724304,172.041168 
	C386.643768,167.426544 386.574829,163.637192 386.505890,159.847824 
	C386.594604,158.204132 386.683350,156.560425 386.765686,154.129684 
	C386.683502,149.515518 386.607758,145.688385 386.532013,141.861267 
	C386.612823,140.537201 386.693634,139.213135 386.759705,137.106934 
	C386.673462,135.504868 386.601990,134.684937 386.530518,133.864990 
	C386.611115,133.477295 386.691711,133.089584 386.762207,132.002991 
	C386.690155,118.461021 386.628204,105.617958 386.566223,92.774902 
	C386.644775,91.795914 386.723328,90.816933 386.785370,89.094002 
	C386.707977,87.273735 386.647125,86.197403 386.586273,85.121078 
	C387.452759,84.026016 388.256378,82.052048 389.196411,81.984795 
	C393.790894,81.656090 398.421814,81.835915 403.316650,81.835915 
	C403.316650,114.447823 403.316650,146.591476 403.316650,179.182281 
	C398.237488,179.182281 393.300446,179.228638 388.366882,179.118759 
	C387.802551,179.106186 387.257721,178.219452 386.681458,177.118835 
	C386.593201,176.302826 386.527283,176.105988 386.461395,175.909164 
z"/>
<path fill="#F5F6F6" opacity="1.000000" stroke="none" 
	d="
M437.783112,125.999771 
	C437.781158,143.933319 437.781158,161.366852 437.781158,178.996948 
	C432.135040,178.996948 426.896759,178.996948 421.394989,178.996948 
	C421.394989,146.672760 421.394989,114.609352 421.394989,82.186722 
	C426.713348,82.186722 431.939667,82.186722 437.785065,82.186722 
	C437.785065,96.655838 437.785065,111.077789 437.783112,125.999771 
z"/>
<path fill="#F8F8F8" opacity="1.000000" stroke="none" 
	d="
M13.234848,208.946091 
	C12.957542,204.231918 15.435713,201.059250 18.689291,197.939774 
	C24.306767,192.553802 29.534695,186.761520 35.032249,181.028976 
	C42.873783,189.298935 50.063030,196.880981 57.097546,204.299820 
	C43.245255,218.077942 28.577593,232.667053 13.399020,247.764343 
	C13.399020,246.101898 13.399020,244.438507 13.373153,242.137711 
	C13.279988,241.323044 13.212691,241.145767 13.145393,240.968491 
	C13.240170,238.279831 13.334949,235.591156 13.409882,232.035156 
	C13.338334,228.754883 13.286633,226.341965 13.234930,223.929031 
	C13.341658,223.204819 13.448385,222.480621 13.539019,220.983063 
	C13.432575,218.114639 13.342226,216.019577 13.251878,213.924515 
	C13.349372,212.878891 13.446866,211.833282 13.500729,210.142899 
	C13.383014,209.314117 13.308930,209.130096 13.234848,208.946091 
z"/>
<path fill="#F4F4F6" opacity="1.000000" stroke="none" 
	d="
M369.927155,111.004387 
	C369.836914,131.806976 369.746124,152.609558 369.657471,173.412140 
	C369.649841,175.199631 369.656433,176.987167 369.656433,179.008453 
	C363.934174,179.008453 358.821228,179.008453 353.397247,179.008453 
	C353.397247,155.833908 353.397247,132.769180 353.397247,108.969986 
	C358.483002,108.969986 363.561646,108.969986 369.083191,109.375587 
	C369.659760,110.188919 369.793457,110.596649 369.927155,111.004387 
z"/>
<path fill="#2FB9EB" opacity="1.000000" stroke="none" 
	d="
M104.934700,139.082214 
	C96.259399,129.982880 87.584084,120.883560 78.736664,111.603699 
	C87.328354,103.159546 96.526726,94.119133 106.080948,84.728981 
	C115.055443,93.674171 124.159920,102.748917 132.888885,112.297783 
	C132.011017,112.840973 131.508667,112.910042 130.851334,112.680695 
	C126.929993,108.833374 123.163635,105.284470 118.788422,101.161880 
	C117.905792,103.571960 117.104263,104.765587 117.086960,105.970467 
	C116.980179,113.403633 105.238914,120.920532 99.536789,122.046455 
	C98.056580,122.338730 95.592339,123.068024 95.501228,123.827156 
	C95.321007,125.328735 96.165184,127.228531 97.149796,128.540436 
	C99.608871,131.816940 102.383423,134.856659 105.002808,138.263733 
	C104.961060,138.718109 104.947876,138.900177 104.934700,139.082214 
z"/>
<path fill="#34B7E9" opacity="1.000000" stroke="none" 
	d="
M132.252686,83.892693 
	C127.974045,79.759216 123.695396,75.625732 119.514519,71.586708 
	C134.230804,56.929821 148.494019,42.724194 163.566345,27.712698 
	C163.566345,38.376484 163.566345,48.651638 163.242188,59.397392 
	C162.620819,59.965237 162.316971,60.032642 161.984177,59.764252 
	C161.645523,58.963463 161.329208,58.468628 161.012039,57.536011 
	C161.010635,56.598343 161.102051,56.077374 160.993164,55.602310 
	C160.577866,53.790424 160.098022,51.993328 159.642288,50.190704 
	C157.937454,51.034286 155.817413,51.487907 154.597443,52.786873 
	C148.275543,59.518139 142.466385,66.752457 135.898544,73.222702 
	C132.323654,76.744484 131.832886,79.895027 133.713898,83.957703 
	C133.031952,83.923019 132.642319,83.907852 132.252686,83.892693 
z"/>
<path fill="#26AEE9" opacity="1.000000" stroke="none" 
	d="
M58.569901,177.169220 
	C58.569901,177.169220 58.207302,177.024765 58.080414,176.602325 
	C57.476009,175.775665 56.998493,175.371445 56.520973,174.967224 
	C53.658947,172.344696 50.796921,169.722153 48.168407,166.639557 
	C52.087990,164.123306 53.762012,166.213562 54.624477,169.483261 
	C55.961864,168.918808 56.959869,168.219162 58.025986,168.092422 
	C65.478867,167.206406 69.573837,161.313080 71.351486,155.737320 
	C72.818993,151.134384 73.573128,146.599243 77.412453,142.987732 
	C78.602791,142.945343 79.396606,142.900101 80.190414,142.854858 
	C80.190414,142.854858 80.087265,142.927185 80.095245,143.228729 
	C83.398117,146.682663 86.693008,149.835052 89.987900,152.987442 
	C90.388817,153.402679 90.789734,153.817932 90.973358,154.713379 
	C87.925102,162.447266 81.291565,166.240250 76.246475,171.524292 
	C71.119064,176.894562 65.691330,179.116196 58.569901,177.169220 
z"/>
<path fill="#2297E4" opacity="1.000000" stroke="none" 
	d="
M120.935852,155.030243 
	C118.245041,152.445312 115.554237,149.860367 112.896942,146.549515 
	C112.938614,145.556168 112.946777,145.288742 113.322235,145.020218 
	C116.440567,145.881744 118.328270,145.530457 120.332535,142.804840 
	C122.285927,140.148407 125.468803,138.293152 128.346436,136.452927 
	C130.516342,135.065277 137.726761,123.783028 137.383560,121.301178 
	C137.252701,120.354843 136.566299,119.498978 136.294647,118.555374 
	C135.848572,117.005852 135.534271,115.418388 135.164413,113.846924 
	C139.325668,117.804077 143.486938,121.761230 147.788483,126.361343 
	C147.514206,128.186493 146.385895,129.951218 146.799240,130.457687 
	C149.800140,134.134506 145.877701,135.725540 144.693253,138.055359 
	C144.197144,139.031189 142.901932,139.578201 142.309891,140.531296 
	C137.327713,148.551727 130.474182,153.754288 120.935852,155.030243 
z"/>
<path fill="#27BCF1" opacity="1.000000" stroke="none" 
	d="
M77.015923,142.984894 
	C73.573128,146.599243 72.818993,151.134384 71.351486,155.737320 
	C69.573837,161.313080 65.478867,167.206406 58.025986,168.092422 
	C56.959869,168.219162 55.961864,168.918808 54.624477,169.483261 
	C53.762012,166.213562 52.087990,164.123306 48.045097,166.337250 
	C47.688282,166.495026 47.698273,166.440369 47.641373,166.088959 
	C47.206455,165.550873 46.828438,165.364182 46.450417,165.177490 
	C46.450417,165.177490 46.126484,165.093750 46.028816,164.647125 
	C45.495777,163.888367 45.060406,163.576233 44.625031,163.264084 
	C44.625031,163.264084 44.724236,163.186356 44.805862,162.864258 
	C44.184776,160.895844 43.482067,159.249496 43.296413,158.814545 
	C47.429790,156.769028 51.679852,155.105194 55.419888,152.660934 
	C57.927170,151.022339 60.444828,148.610382 61.653465,145.951538 
	C63.667152,141.521683 64.634857,136.616348 66.378510,131.970749 
	C68.431305,133.024521 70.148590,134.018784 71.865875,135.013031 
	C72.138313,135.240555 72.410744,135.468094 72.850121,136.245453 
	C73.358513,137.834747 73.699974,138.874207 74.187912,140.171844 
	C74.878403,140.620102 75.422417,140.810181 75.985626,141.239807 
	C76.004837,141.479370 76.018318,141.959854 76.121140,142.185242 
	C76.420761,142.692062 76.682739,142.884979 77.005714,142.994141 
	C77.001534,142.998886 77.015923,142.984894 77.015923,142.984894 
z"/>
<path fill="#1E89E0" opacity="1.000000" stroke="none" 
	d="
M121.036652,155.352524 
	C130.474182,153.754288 137.327713,148.551727 142.309891,140.531296 
	C142.901932,139.578201 144.197144,139.031189 144.693253,138.055359 
	C145.877701,135.725540 149.800140,134.134506 146.799240,130.457687 
	C146.385895,129.951218 147.514206,128.186493 147.924698,126.677567 
	C150.964218,129.240524 154.007828,132.130203 156.971375,135.656555 
	C152.955246,138.027740 156.544373,141.908875 155.071945,143.670013 
	C149.481522,150.356598 143.491364,156.726852 137.366104,162.934601 
	C136.002380,164.316696 133.481247,164.556763 131.492996,165.322647 
	C128.041153,162.106705 124.589302,158.890747 121.036652,155.352524 
z"/>
<path fill="#2DC4F0" opacity="1.000000" stroke="none" 
	d="
M66.042992,131.911224 
	C64.634857,136.616348 63.667152,141.521683 61.653465,145.951538 
	C60.444828,148.610382 57.927170,151.022339 55.419888,152.660934 
	C51.679852,155.105194 47.429790,156.769028 43.296413,158.814545 
	C43.482067,159.249496 44.184776,160.895844 44.811951,162.926987 
	C38.226074,157.083740 31.715729,150.855667 25.054729,144.022827 
	C24.139141,142.906006 23.374210,142.393967 22.609280,141.881943 
	C22.460041,141.805206 22.310799,141.728485 22.027647,141.428970 
	C21.893736,141.206192 21.870304,141.152771 21.870304,141.152771 
	C21.708759,141.043152 21.547213,140.933517 21.204815,140.247528 
	C19.925495,138.851486 18.827026,138.031799 17.728558,137.212097 
	C17.570177,137.122528 17.411795,137.032959 17.148083,136.398682 
	C17.010473,135.246750 16.978197,134.639511 17.316696,134.030411 
	C22.144670,136.773132 26.601871,139.517731 30.848845,142.132874 
	C31.032913,143.454468 30.802519,145.304672 31.606310,146.386368 
	C32.178509,147.156387 34.148445,146.860931 35.484333,147.098648 
	C36.577553,147.293198 38.192566,147.201965 38.656200,147.873062 
	C42.687801,153.708710 46.435658,147.688065 50.221848,147.399841 
	C50.974525,147.342560 51.879002,143.205643 51.921604,140.935120 
	C52.116020,130.573364 52.014572,130.571457 61.929710,132.741226 
	C61.596722,130.647400 61.305008,128.813095 61.355251,127.019165 
	C63.145802,128.676773 64.594398,130.294006 66.042992,131.911224 
z"/>
<path fill="#249CE0" opacity="1.000000" stroke="none" 
	d="
M58.696999,177.492432 
	C65.691330,179.116196 71.119064,176.894562 76.246475,171.524292 
	C81.291565,166.240250 87.925102,162.447266 91.067451,154.988037 
	C91.378838,154.782486 91.745178,154.731415 91.915024,155.195282 
	C93.589722,156.794525 95.094566,157.929916 96.599426,159.065277 
	C97.814453,159.902664 99.029465,160.740067 100.771385,161.940598 
	C94.389580,168.409851 88.878662,174.067749 83.282059,179.639587 
	C80.463890,182.445282 77.350960,184.964020 74.632935,187.858215 
	C72.623756,189.997574 71.087318,190.385849 68.946609,188.077362 
	C65.681152,184.555984 62.208672,181.226578 58.696999,177.492432 
z"/>
<path fill="#23A3EA" opacity="1.000000" stroke="none" 
	d="
M135.129761,113.856842 
	C135.534271,115.418388 135.848572,117.005852 136.294647,118.555374 
	C136.566299,119.498978 137.252701,120.354843 137.383560,121.301178 
	C137.726761,123.783028 130.516342,135.065277 128.346436,136.452927 
	C125.468803,138.293152 122.285927,140.148407 120.332535,142.804840 
	C118.328270,145.530457 116.440567,145.881744 112.925461,145.045929 
	C111.896606,145.091354 111.631821,145.109985 111.367035,145.128601 
	C110.952332,144.918701 110.537636,144.708786 110.044128,143.891708 
	C108.976273,142.523605 107.987228,141.762665 106.998192,141.001724 
	C106.705803,140.855392 106.413406,140.709061 105.930611,140.089630 
	C105.464676,139.418579 105.189148,139.220627 104.913628,139.022675 
	C104.913628,139.022675 104.972519,139.033997 104.953606,139.058105 
	C104.947876,138.900177 104.961060,138.718109 105.367989,138.260864 
	C112.990089,134.351715 119.647484,130.172806 123.758820,122.717438 
	C125.694839,119.206734 128.561417,116.209198 131.006317,112.979118 
	C131.508667,112.910042 132.011017,112.840973 132.871124,112.636177 
	C133.228882,112.500450 133.215668,112.540794 133.285416,112.888062 
	C133.933868,113.469803 134.512558,113.704277 135.091263,113.938759 
	C135.091263,113.938759 135.095108,113.866768 135.129761,113.856842 
z"/>
<path fill="#177AD9" opacity="1.000000" stroke="none" 
	d="
M131.621017,165.637848 
	C133.481247,164.556763 136.002380,164.316696 137.366104,162.934601 
	C143.491364,156.726852 149.481522,150.356598 155.071945,143.670013 
	C156.544373,141.908875 152.955246,138.027740 157.069565,135.972839 
	C158.858810,137.110809 160.469772,138.569199 162.003540,140.683060 
	C161.946762,144.228104 161.967194,147.117676 161.640900,150.045044 
	C159.735855,151.718628 157.504913,153.089188 156.737030,155.036652 
	C153.606552,162.975754 147.404099,168.039551 140.621765,173.061996 
	C139.999268,173.184631 139.753845,173.250763 139.508408,173.316895 
	C136.921951,170.862289 134.335495,168.407684 131.621017,165.637848 
z"/>
<path fill="#F3F5F6" opacity="1.000000" stroke="none" 
	d="
M361.833130,78.796585 
	C368.893036,80.231209 372.119354,84.179543 371.192352,89.733749 
	C370.381775,94.590317 365.531342,98.200462 360.206329,97.910553 
	C354.650513,97.608070 350.232910,93.113350 350.375488,87.908051 
	C350.523193,82.515121 354.468842,79.256035 361.833130,78.796585 
z"/>
<path fill="#209FEA" opacity="1.000000" stroke="none" 
	d="
M161.012878,57.973797 
	C161.329208,58.468628 161.645523,58.963463 161.998856,60.206100 
	C162.532364,67.264305 161.437531,72.930061 156.301437,77.367111 
	C151.846222,81.215950 147.664108,85.380943 143.049500,89.697868 
	C141.629150,89.195686 139.802521,88.549850 137.801239,87.686981 
	C137.097794,87.313316 136.568970,87.156693 136.040161,87.000069 
	C135.877426,86.959076 135.714706,86.918091 135.444153,86.503929 
	C135.336349,86.130760 135.386826,85.755646 135.552826,85.590141 
	C135.800598,84.952881 135.882385,84.481133 136.288361,83.869568 
	C140.569931,80.162849 144.788742,76.840820 148.418030,72.966545 
	C152.873703,68.210083 156.836823,62.992207 161.012878,57.973797 
z"/>
<path fill="#1661C3" opacity="1.000000" stroke="none" 
	d="
M161.987625,150.007248 
	C161.967194,147.117676 161.946762,144.228104 162.101562,140.997406 
	C162.906067,142.198456 164.060364,143.733826 164.080338,145.283844 
	C164.221695,156.246597 164.128723,167.212357 164.113846,178.177155 
	C164.106735,183.410538 160.121109,185.863907 156.661606,188.601318 
	C156.140045,189.014023 154.534271,188.842560 154.007584,188.338196 
	C149.835831,184.343094 145.803986,180.201904 141.762665,175.656525 
	C141.796173,175.207443 142.031326,174.970139 142.330978,175.139313 
	C145.579056,176.199112 149.863495,178.774796 151.240326,177.683182 
	C156.661484,173.385040 162.177353,168.556854 162.005585,160.491898 
	C161.931183,156.998474 161.989563,153.502213 161.987625,150.007248 
M155.807526,183.926498 
	C155.392029,182.371628 154.976517,180.816772 154.335236,178.417023 
	C151.510635,182.074326 151.994064,183.751282 155.807526,183.926498 
z"/>
<path fill="#51AFD0" opacity="1.000000" stroke="none" 
	d="
M16.945921,134.032288 
	C16.978197,134.639511 17.010473,135.246750 17.027702,136.153732 
	C15.804595,134.145386 13.682281,131.887192 13.553064,129.520187 
	C13.091808,121.071037 14.078360,112.490662 13.057079,104.138458 
	C11.964571,95.203735 16.554550,90.263168 23.061050,85.417404 
	C33.374928,95.694313 43.685661,105.968094 53.743820,116.577003 
	C49.680149,113.923157 45.869053,110.934174 42.050484,107.958466 
	C42.043007,107.971748 42.048000,107.952866 42.006145,107.610321 
	C36.655014,102.168045 31.345734,97.068314 26.017536,91.981781 
	C25.998619,91.994972 26.038788,91.977913 26.012337,91.685043 
	C25.654924,90.940956 25.323965,90.489746 24.785477,89.778000 
	C23.719889,89.364136 22.861828,89.210800 21.698170,89.191666 
	C19.597015,91.549660 17.801458,93.773460 16.002333,95.998230 
	C15.998764,95.999214 15.997461,96.006989 15.736650,96.213318 
	C15.318098,97.277466 15.160357,98.135284 14.993278,99.462112 
	C14.987108,105.406708 14.880163,110.885239 15.027450,116.356926 
	C15.150616,120.932549 15.571143,125.500160 15.879807,130.301270 
	C15.899623,130.531235 15.922884,130.992264 15.921511,131.330978 
	C16.262066,132.457230 16.603994,133.244751 16.945921,134.032288 
z"/>
<path fill="#2981BB" opacity="1.000000" stroke="none" 
	d="
M137.975876,87.904022 
	C139.802521,88.549850 141.629150,89.195686 143.049500,89.697868 
	C147.664108,85.380943 151.846222,81.215950 156.301437,77.367111 
	C161.437531,72.930061 162.532364,67.264305 162.021179,60.512054 
	C162.316971,60.032642 162.620819,59.965237 163.148987,59.840412 
	C164.783386,67.444260 164.652267,74.433014 157.460495,79.718544 
	C153.759354,82.438667 150.780670,86.143135 147.482086,89.409424 
	C142.074554,94.764015 142.076813,94.766304 137.224304,88.335571 
	C137.617050,87.937981 137.796463,87.920998 137.975876,87.904022 
z"/>
<path fill="#2DC4F0" opacity="1.000000" stroke="none" 
	d="
M42.057961,107.945190 
	C45.869053,110.934174 49.680149,113.923157 53.849689,116.898323 
	C54.535309,116.928940 54.789169,117.089378 55.026474,117.942856 
	C56.729073,121.009430 58.374908,123.498970 59.656433,125.952545 
	C57.911953,125.416069 56.120907,125.299644 55.227589,124.344025 
	C52.392590,121.311287 50.285713,117.874275 46.087296,115.915451 
	C43.966335,114.925880 43.352978,110.705025 42.057961,107.945190 
z"/>
<path fill="#060710" opacity="1.000000" stroke="none" 
	d="
M386.195618,93.032394 
	C386.628204,105.617958 386.690155,118.461021 386.642700,131.724304 
	C386.022949,131.021927 385.079865,129.903381 385.069336,128.776123 
	C384.965790,117.705360 385.001801,106.633057 385.059296,95.561516 
	C385.063232,94.803009 385.558319,94.047043 386.195618,93.032394 
z"/>
<path fill="#51AFD0" opacity="1.000000" stroke="none" 
	d="
M60.020744,125.988503 
	C58.374908,123.498970 56.729073,121.009430 55.097916,118.162399 
	C60.659897,123.322945 66.207199,128.840988 71.810181,134.686035 
	C70.148590,134.018784 68.431305,133.024521 66.378510,131.970749 
	C64.594398,130.294006 63.145802,128.676773 61.242695,126.806229 
	C60.589546,126.287048 60.333733,126.098907 60.020744,125.988503 
z"/>
<path fill="#51AFD0" opacity="1.000000" stroke="none" 
	d="
M89.977966,152.647430 
	C86.693008,149.835052 83.398117,146.682663 80.119003,143.170395 
	C83.412544,145.976151 86.690292,149.141769 89.977966,152.647430 
z"/>
<path fill="#51AFD0" opacity="1.000000" stroke="none" 
	d="
M74.041435,139.913651 
	C73.699974,138.874207 73.358513,137.834747 73.002068,136.465332 
	C75.315155,138.165649 77.643234,140.195938 80.080864,142.540527 
	C79.396606,142.900101 78.602791,142.945343 77.412453,142.987732 
	C77.015923,142.984894 77.001534,142.998886 76.895905,142.774567 
	C76.591080,142.277435 76.333763,142.080643 76.018318,141.959854 
	C76.018318,141.959854 76.004837,141.479370 75.824738,140.998352 
	C75.110237,140.316116 74.575836,140.114883 74.041435,139.913651 
z"/>
<path fill="#060710" opacity="1.000000" stroke="none" 
	d="
M386.161865,142.102936 
	C386.607758,145.688385 386.683502,149.515518 386.645874,153.733109 
	C386.285583,150.197266 386.038635,146.270935 386.161865,142.102936 
z"/>
<path fill="#03080E" opacity="1.000000" stroke="none" 
	d="
M658.169861,156.907394 
	C659.825684,156.510406 661.635742,156.425720 663.810364,156.467499 
	C662.224670,156.802536 660.274353,157.011108 658.169861,156.907394 
z"/>
<path fill="#060710" opacity="1.000000" stroke="none" 
	d="
M386.140076,160.096741 
	C386.574829,163.637192 386.643768,167.426544 386.594971,171.676941 
	C386.242920,168.207199 386.008606,164.276428 386.140076,160.096741 
z"/>
<path fill="#51AFD0" opacity="1.000000" stroke="none" 
	d="
M96.513870,158.767548 
	C95.094566,157.929916 93.589722,156.794525 92.056442,155.314453 
	C93.494781,156.136444 94.961555,157.303116 96.513870,158.767548 
z"/>
<path fill="#01050B" opacity="1.000000" stroke="none" 
	d="
M12.917901,224.180328 
	C13.286633,226.341965 13.338334,228.754883 13.272523,231.606110 
	C12.970297,229.506821 12.785583,226.969223 12.917901,224.180328 
z"/>
<path fill="#51AFD0" opacity="1.000000" stroke="none" 
	d="
M17.837889,137.493820 
	C18.827026,138.031799 19.925495,138.851486 21.061148,139.992340 
	C20.047960,139.467499 18.997589,138.621521 17.837889,137.493820 
z"/>
<path fill="#01050B" opacity="1.000000" stroke="none" 
	d="
M12.935017,214.168472 
	C13.342226,216.019577 13.432575,218.114639 13.388142,220.641327 
	C13.041625,218.852783 12.829891,216.632599 12.935017,214.168472 
z"/>
<path fill="#2FB9EB" opacity="1.000000" stroke="none" 
	d="
M107.096169,141.300476 
	C107.987228,141.762665 108.976273,142.523605 109.982971,143.654449 
	C109.065132,143.216003 108.129639,142.407623 107.096169,141.300476 
z"/>
<path fill="#030812" opacity="1.000000" stroke="none" 
	d="
M725.356079,179.551361 
	C725.182312,178.810699 725.400513,178.205795 725.739746,177.294907 
	C726.477417,177.574356 727.093933,178.159805 727.710510,178.745255 
	C727.056335,179.059204 726.402100,179.373169 725.356079,179.551361 
z"/>
<path fill="#03080E" opacity="1.000000" stroke="none" 
	d="
M643.107361,156.791687 
	C643.762817,156.453690 644.511108,156.380966 645.622925,156.417297 
	C645.057739,156.703217 644.128967,156.880081 643.107361,156.791687 
z"/>
<path fill="#51AFD0" opacity="1.000000" stroke="none" 
	d="
M22.676939,142.148254 
	C23.374210,142.393967 24.139141,142.906006 24.906382,143.721191 
	C24.187326,143.487747 23.465963,142.951172 22.676939,142.148254 
z"/>
<path fill="#2981BB" opacity="1.000000" stroke="none" 
	d="
M135.386826,85.755646 
	C135.386826,85.755646 135.336349,86.130760 135.282135,86.311302 
	C134.317764,85.806953 133.407593,85.122070 132.375061,84.164932 
	C132.642319,83.907852 133.031952,83.923019 133.712677,83.969749 
	C134.003769,84.001320 134.021957,83.994240 134.131607,84.254463 
	C134.623108,84.928337 135.004974,85.341995 135.386826,85.755646 
z"/>
<path fill="#010510" opacity="1.000000" stroke="none" 
	d="
M707.909424,174.160889 
	C708.306030,175.056137 708.410583,176.162109 708.402161,177.672394 
	C708.065247,176.841690 707.841309,175.606659 707.909424,174.160889 
z"/>
<path fill="#060710" opacity="1.000000" stroke="none" 
	d="
M386.230774,85.260376 
	C386.647125,86.197403 386.707977,87.273735 386.661377,88.742935 
	C386.327667,87.890434 386.101440,86.645050 386.230774,85.260376 
z"/>
<path fill="#010412" opacity="1.000000" stroke="none" 
	d="
M370.243164,110.955612 
	C369.793457,110.596649 369.659760,110.188919 369.513062,109.458801 
	C370.150391,109.417114 370.800781,109.697815 371.451141,109.978516 
	C371.153809,110.287956 370.856506,110.597389 370.243164,110.955612 
z"/>
<path fill="#249CE0" opacity="1.000000" stroke="none" 
	d="
M56.557766,175.214417 
	C56.998493,175.371445 57.476009,175.775665 57.991600,176.428558 
	C57.551300,176.272018 57.072929,175.866806 56.557766,175.214417 
z"/>
<path fill="#060710" opacity="1.000000" stroke="none" 
	d="
M386.201416,134.045898 
	C386.601990,134.684937 386.673462,135.504868 386.636078,136.725220 
	C386.308899,136.159332 386.090607,135.193054 386.201416,134.045898 
z"/>
<path fill="#2FB9EB" opacity="1.000000" stroke="none" 
	d="
M134.991577,113.626793 
	C134.512558,113.704277 133.933868,113.469803 133.288574,112.908852 
	C133.778625,112.826523 134.335251,113.070679 134.991577,113.626793 
z"/>
<path fill="#03080E" opacity="1.000000" stroke="none" 
	d="
M666.052734,156.880966 
	C666.395813,156.519974 666.889099,156.436340 667.733276,156.501648 
	C667.457031,156.819855 666.830017,156.989090 666.052734,156.880966 
z"/>
<path fill="#34B7E9" opacity="1.000000" stroke="none" 
	d="
M137.801239,87.686981 
	C137.796463,87.920998 137.617050,87.937981 137.170990,88.000175 
	C136.608459,87.911903 136.361420,87.716644 136.101685,87.229836 
	C136.568970,87.156693 137.097794,87.313316 137.801239,87.686981 
z"/>
<path fill="#26AEE9" opacity="1.000000" stroke="none" 
	d="
M44.676033,163.538635 
	C45.060406,163.576233 45.495777,163.888367 45.971489,164.489960 
	C45.583569,164.457336 45.155304,164.135269 44.676033,163.538635 
z"/>
<path fill="#010510" opacity="1.000000" stroke="none" 
	d="
M708.000366,169.089508 
	C708.335022,169.414993 708.414368,169.890656 708.360107,170.708221 
	C708.065979,170.446671 707.905518,169.843201 708.000366,169.089508 
z"/>
<path fill="#060710" opacity="1.000000" stroke="none" 
	d="
M386.245300,176.010681 
	C386.527283,176.105988 386.593201,176.302826 386.536987,176.786087 
	C386.186462,176.872635 385.951965,176.678482 385.744232,176.459015 
	C385.731415,176.445450 385.929291,176.232437 386.245300,176.010681 
z"/>
<path fill="#01050B" opacity="1.000000" stroke="none" 
	d="
M12.974964,241.069305 
	C13.212691,241.145767 13.279988,241.323044 13.239519,241.763550 
	C12.948957,241.848633 12.753199,241.680649 12.597017,241.481613 
	C12.572954,241.450958 12.730813,241.277527 12.974964,241.069305 
z"/>
<path fill="#01050B" opacity="1.000000" stroke="none" 
	d="
M13.053799,209.053665 
	C13.308930,209.130096 13.383014,209.314117 13.345964,209.774200 
	C13.114138,209.753937 12.993443,209.457581 13.053799,209.053665 
z"/>
<path fill="#1661C3" opacity="1.000000" stroke="none" 
	d="
M141.677216,175.324707 
	C141.251297,175.315231 140.990036,175.125519 140.788391,174.536224 
	C140.802307,174.199570 141.051147,173.961105 141.255157,174.086426 
	C141.714813,174.415527 141.905533,174.668335 142.031326,174.970139 
	C142.031326,174.970139 141.796173,175.207443 141.677216,175.324707 
z"/>
<path fill="#1661C3" opacity="1.000000" stroke="none" 
	d="
M139.627579,173.549774 
	C139.753845,173.250763 139.999268,173.184631 140.630249,173.301117 
	C141.015793,173.483734 141.051147,173.961105 141.051147,173.961105 
	C141.051147,173.961105 140.802307,174.199570 140.674683,174.319489 
	C140.280289,174.220490 140.013519,174.001572 139.627579,173.549774 
z"/>
<path fill="#26AEE9" opacity="1.000000" stroke="none" 
	d="
M46.561447,165.471283 
	C46.828438,165.364182 47.206455,165.550873 47.648773,166.062195 
	C47.366199,166.179581 47.019337,165.972321 46.561447,165.471283 
z"/>
<path fill="#03080E" opacity="1.000000" stroke="none" 
	d="
M632.811157,157.771454 
	C632.755676,157.454437 633.034668,157.028900 633.706543,156.630951 
	C633.781555,156.993347 633.463562,157.328140 632.811157,157.771454 
z"/>
<path fill="#2FB9EB" opacity="1.000000" stroke="none" 
	d="
M111.518661,145.473083 
	C111.631821,145.109985 111.896606,145.091354 112.558167,145.046997 
	C112.946777,145.288742 112.938614,145.556168 112.917297,146.226257 
	C112.492851,146.358459 112.081573,146.088013 111.518661,145.473083 
z"/>
<path fill="#51AFD0" opacity="1.000000" stroke="none" 
	d="
M21.775061,141.190475 
	C21.870304,141.152771 21.893736,141.206192 21.908241,141.207382 
	C21.922745,141.208572 21.679817,141.228180 21.775061,141.190475 
z"/>
<path fill="#2FB9EB" opacity="1.000000" stroke="none" 
	d="
M104.983139,139.290756 
	C105.189148,139.220627 105.464676,139.418579 105.863472,139.842346 
	C105.675377,139.898392 105.364006,139.728622 104.983139,139.290756 
z"/>
<path fill="#111524" opacity="1.000000" stroke="none" 
	d="
M653.624268,102.495895 
	C658.170227,115.695198 662.558899,128.546509 667.080811,141.787994 
	C657.129761,141.787994 647.618469,141.787994 637.514709,141.787994 
	C642.213074,127.421333 646.791626,113.421074 651.657288,98.542793 
	C652.452881,100.127655 652.959961,101.137779 653.624268,102.495895 
z"/>
<path fill="#27AEEB" opacity="1.000000" stroke="none" 
	d="
M130.851349,112.680695 
	C128.561417,116.209198 125.694839,119.206734 123.758820,122.717438 
	C119.647484,130.172806 112.990089,134.351715 105.396553,137.988541 
	C102.383423,134.856659 99.608871,131.816940 97.149796,128.540436 
	C96.165184,127.228531 95.321007,125.328735 95.501228,123.827156 
	C95.592339,123.068024 98.056580,122.338730 99.536789,122.046455 
	C105.238914,120.920532 116.980179,113.403633 117.086960,105.970467 
	C117.104263,104.765587 117.905792,103.571960 118.788422,101.161880 
	C123.163635,105.284470 126.929993,108.833374 130.851349,112.680695 
z"/>
<path fill="#23AEED" opacity="1.000000" stroke="none" 
	d="
M161.012039,57.536011 
	C156.836823,62.992207 152.873703,68.210083 148.418030,72.966545 
	C144.788742,76.840820 140.569931,80.162849 135.965057,83.865730 
	C134.885696,83.999214 134.453827,83.996727 134.021957,83.994247 
	C134.021957,83.994240 134.003769,84.001320 134.005005,83.989273 
	C131.832886,79.895027 132.323654,76.744484 135.898544,73.222702 
	C142.466385,66.752457 148.275543,59.518139 154.597443,52.786873 
	C155.817413,51.487907 157.937454,51.034286 159.642288,50.190704 
	C160.098022,51.993328 160.577866,53.790424 160.993164,55.602310 
	C161.102051,56.077374 161.010635,56.598343 161.012039,57.536011 
z"/>
<path fill="#26AEE9" opacity="1.000000" stroke="none" 
	d="
M74.187912,140.171844 
	C74.575836,140.114883 75.110237,140.316116 75.805527,140.758789 
	C75.422417,140.810181 74.878403,140.620102 74.187912,140.171844 
z"/>
<path fill="#26AEE9" opacity="1.000000" stroke="none" 
	d="
M76.121140,142.185242 
	C76.333763,142.080643 76.591080,142.277435 76.900085,142.769806 
	C76.682739,142.884979 76.420761,142.692062 76.121140,142.185242 
z"/>
<path fill="#29CAF7" opacity="1.000000" stroke="none" 
	d="
M59.656433,125.952545 
	C60.333733,126.098907 60.589546,126.287048 60.900738,126.765854 
	C61.305008,128.813095 61.596722,130.647400 61.929710,132.741226 
	C52.014572,130.571457 52.116020,130.573364 51.921604,140.935120 
	C51.879002,143.205643 50.974525,147.342560 50.221848,147.399841 
	C46.435658,147.688065 42.687801,153.708710 38.656200,147.873062 
	C38.192566,147.201965 36.577553,147.293198 35.484333,147.098648 
	C34.148445,146.860931 32.178509,147.156387 31.606310,146.386368 
	C30.802519,145.304672 31.032913,143.454468 30.848845,142.132874 
	C26.601871,139.517731 22.144670,136.773132 17.316696,134.030411 
	C16.603994,133.244751 16.262066,132.457230 16.094496,131.244949 
	C16.132566,130.570572 15.996280,130.320953 15.859991,130.071320 
	C15.571143,125.500160 15.150616,120.932549 15.027450,116.356926 
	C14.880163,110.885239 14.987108,105.406708 15.249250,99.252571 
	C15.675529,97.718330 15.836494,96.862663 15.997460,96.006989 
	C15.997461,96.006989 15.998764,95.999214 16.433151,95.999893 
	C23.186747,97.094383 21.931593,92.584976 22.003767,89.057472 
	C22.861828,89.210800 23.719889,89.364136 24.812107,90.069901 
	C25.377106,91.074196 25.707947,91.526054 26.038788,91.977913 
	C26.038788,91.977913 25.998619,91.994972 26.013386,92.349213 
	C26.445698,93.544060 26.731215,94.490341 27.304373,95.206406 
	C29.426983,97.858261 33.116955,100.224258 33.524307,103.081680 
	C34.412762,109.313873 37.609936,109.154770 42.048000,107.952866 
	C42.048000,107.952866 42.043007,107.971748 42.050484,107.958466 
	C43.352978,110.705025 43.966335,114.925880 46.087296,115.915451 
	C50.285713,117.874275 52.392590,121.311287 55.227589,124.344025 
	C56.120907,125.299644 57.911953,125.416069 59.656433,125.952545 
M38.521385,128.305664 
	C38.366943,130.262497 37.904064,132.255768 38.129841,134.167694 
	C38.474529,137.086548 41.171207,138.053909 42.631245,136.176758 
	C43.959473,134.469070 43.657803,131.284790 43.476128,128.795090 
	C43.441513,128.320679 40.614433,128.050018 38.521385,128.305664 
z"/>
<path fill="#106ED8" opacity="1.000000" stroke="none" 
	d="
M141.255157,174.086426 
	C141.051147,173.961105 141.015793,173.483734 141.007309,173.244614 
	C147.404099,168.039551 153.606552,162.975754 156.737030,155.036652 
	C157.504913,153.089188 159.735855,151.718628 161.640900,150.045044 
	C161.989563,153.502213 161.931183,156.998474 162.005585,160.491898 
	C162.177353,168.556854 156.661484,173.385040 151.240326,177.683182 
	C149.863495,178.774796 145.579056,176.199112 142.330978,175.139313 
	C141.905533,174.668335 141.714813,174.415527 141.255157,174.086426 
z"/>
<path fill="#34B7E9" opacity="1.000000" stroke="none" 
	d="
M134.131607,84.254471 
	C134.453827,83.996727 134.885696,83.999214 135.640869,84.005539 
	C135.882385,84.481133 135.800598,84.952881 135.552826,85.590141 
	C135.004974,85.341995 134.623108,84.928337 134.131607,84.254471 
z"/>
<path fill="#106ED8" opacity="1.000000" stroke="none" 
	d="
M155.599091,184.199066 
	C151.994064,183.751282 151.510635,182.074326 154.335236,178.417023 
	C154.976517,180.816772 155.392029,182.371628 155.599091,184.199066 
z"/>
<path fill="#2DC4F0" opacity="1.000000" stroke="none" 
	d="
M42.006145,107.610321 
	C37.609936,109.154770 34.412762,109.313873 33.524307,103.081680 
	C33.116955,100.224258 29.426983,97.858261 27.304373,95.206406 
	C26.731215,94.490341 26.445698,93.544060 26.032303,92.336014 
	C31.345734,97.068314 36.655014,102.168045 42.006145,107.610321 
z"/>
<path fill="#2DC4F0" opacity="1.000000" stroke="none" 
	d="
M21.698170,89.191666 
	C21.931593,92.584976 23.186747,97.094383 16.436718,95.998917 
	C17.801458,93.773460 19.597015,91.549660 21.698170,89.191666 
z"/>
<path fill="#2DC4F0" opacity="1.000000" stroke="none" 
	d="
M15.736649,96.213318 
	C15.836494,96.862663 15.675529,97.718330 15.258591,98.783554 
	C15.160357,98.135284 15.318098,97.277466 15.736649,96.213318 
z"/>
<path fill="#2DC4F0" opacity="1.000000" stroke="none" 
	d="
M26.012337,91.685043 
	C25.707947,91.526054 25.377106,91.074196 25.019634,90.330429 
	C25.323965,90.489746 25.654924,90.940956 26.012337,91.685043 
z"/>
<path fill="#2DC4F0" opacity="1.000000" stroke="none" 
	d="
M15.879808,130.301270 
	C15.996280,130.320953 16.132566,130.570572 16.095867,130.906235 
	C15.922884,130.992264 15.899623,130.531235 15.879808,130.301270 
z"/>
<path fill="#2DC4F0" opacity="1.000000" stroke="none" 
	d="
M38.798561,127.995506 
	C40.614433,128.050018 43.441513,128.320679 43.476128,128.795090 
	C43.657803,131.284790 43.959473,134.469070 42.631245,136.176758 
	C41.171207,138.053909 38.474529,137.086548 38.129841,134.167694 
	C37.904064,132.255768 38.366943,130.262497 38.798561,127.995506 
z"/>
</svg>