<svg xmlns="http://www.w3.org/2000/svg" viewBox="0 0 32 32">
  <defs>
    <linearGradient id="grad" x1="0%" y1="0%" x2="100%" y2="100%">
      <stop offset="0%" style="stop-color:#3b82f6"/>
      <stop offset="100%" style="stop-color:#06b6d4"/>
    </linearGradient>
  </defs>
  <rect width="32" height="32" rx="6" fill="#0a1628"/>
  <path fill="white" d="M6 6 L12 6 L12 10 L16 10 L16 6 L22 6 L22 12 L16 16 L22 20 L22 26 L16 26 L16 22 L12 22 L12 26 L6 26 L6 20 L12 16 L6 12 Z" opacity="0.9"/>
  <path fill="url(#grad)" d="M14 8 L18 8 L18 12 L22 12 L22 16 L18 16 L18 12 L14 12 Z"/>
  <path fill="url(#grad)" d="M10 16 L14 16 L14 20 L18 20 L18 24 L14 24 L14 20 L10 20 Z"/>
</svg>
